# Blender v2.79 (sub 0) OBJ File: 'avtar_frame.blend'
# www.blender.org
o Cube_Cube.001
v -0.830000 -0.221333 0.080000
v 0.700000 1.000000 -0.080000
v 1.000000 0.700000 -0.080000
v 0.792705 0.985317 -0.080000
v 0.876336 0.942705 -0.080000
v 0.942705 0.876336 -0.080000
v 0.985317 0.792705 -0.080000
v 1.000000 0.700000 0.080000
v 0.700000 1.000000 0.080000
v 0.830035 0.830035 0.080000
v 0.985317 0.792705 0.080000
v 0.942705 0.876336 0.080000
v 0.876336 0.942705 0.080000
v 0.792705 0.985317 0.080000
v -0.700000 -1.000000 -0.080000
v -1.000000 -0.700000 -0.080000
v -0.792705 -0.985317 -0.080000
v -0.876336 -0.942705 -0.080000
v -0.942705 -0.876336 -0.080000
v -0.985317 -0.792705 -0.080000
v -1.000000 -0.700000 0.080000
v -0.700000 -1.000000 0.080000
v -0.936011 -0.706904 0.080000
v -0.985317 -0.792705 0.080000
v -0.942705 -0.876336 0.080000
v -0.876336 -0.942705 0.080000
v -0.792705 -0.985317 0.080000
v 0.710000 0.830000 0.080000
v 0.830000 0.710000 0.080000
v 0.830000 0.830000 0.080000
v 0.747082 0.824127 0.080000
v 0.780534 0.807082 0.080000
v 0.807082 0.780534 0.080000
v 0.824127 0.747082 0.080000
v 0.830000 0.710000 -0.080000
v 0.710000 0.830000 -0.080000
v 0.824127 0.747082 -0.080000
v 0.807082 0.780534 -0.080000
v 0.780534 0.807082 -0.080000
v 0.747082 0.824127 -0.080000
v -0.710000 -0.830000 0.080000
v -0.830000 -0.710000 0.080000
v -0.747082 -0.824127 0.080000
v -0.780534 -0.807082 0.080000
v -0.807082 -0.780534 0.080000
v -0.824127 -0.747082 0.080000
v -0.830000 -0.710000 -0.080000
v -0.710000 -0.830000 -0.080000
v -0.824127 -0.747082 -0.080000
v -0.807082 -0.780534 -0.080000
v -0.780534 -0.807082 -0.080000
v -0.747082 -0.824127 -0.080000
v 1.000000 -0.700000 -0.080000
v 0.700000 -1.000000 -0.080000
v 0.830035 -0.830035 -0.080000
v 0.985317 -0.792705 -0.080000
v 0.942705 -0.876336 -0.080000
v 0.876336 -0.942705 -0.080000
v 0.792705 -0.985317 -0.080000
v 0.700000 -1.000000 0.080000
v 1.000000 -0.700000 0.080000
v 0.792705 -0.985317 0.080000
v 0.876336 -0.942705 0.080000
v 0.942705 -0.876336 0.080000
v 0.985317 -0.792705 0.080000
v 0.830000 -0.710000 0.080000
v 0.710000 -0.830000 0.080000
v 0.824127 -0.747082 0.080000
v 0.807082 -0.780534 0.080000
v 0.780534 -0.807082 0.080000
v 0.747082 -0.824127 0.080000
v 0.710000 -0.830000 -0.080000
v 0.830000 -0.710000 -0.080000
v 0.830000 -0.830000 -0.080000
v 0.747082 -0.824127 -0.080000
v 0.780534 -0.807082 -0.080000
v 0.807082 -0.780534 -0.080000
v 0.824127 -0.747082 -0.080000
v -1.000000 0.700000 -0.080000
v -0.700000 1.000000 -0.080000
v -0.830035 0.830035 -0.080000
v -0.985317 0.792705 -0.080000
v -0.942705 0.876336 -0.080000
v -0.876336 0.942705 -0.080000
v -0.792705 0.985317 -0.080000
v -0.700000 1.000000 0.080000
v -1.000000 0.700000 0.080000
v -0.792705 0.985317 0.080000
v -0.876336 0.942705 0.080000
v -0.942705 0.876336 0.080000
v -0.985317 0.792705 0.080000
v -0.830000 0.710000 0.080000
v -0.710000 0.830000 0.080000
v -0.824127 0.747082 0.080000
v -0.807082 0.780534 0.080000
v -0.780534 0.807082 0.080000
v -0.747082 0.824127 0.080000
v -0.710000 0.830000 -0.080000
v -0.830000 0.710000 -0.080000
v -0.830000 0.830000 -0.080000
v -0.747082 0.824127 -0.080000
v -0.780534 0.807082 -0.080000
v -0.807082 0.780534 -0.080000
v -0.824127 0.747082 -0.080000
vn 0.0000 0.0000 -1.0000
vn -0.0000 -1.0000 -0.0000
vn 1.0000 0.0000 0.0000
vn 0.0000 1.0000 0.0000
vn 0.0000 0.0000 1.0000
vn 0.9877 0.1564 0.0000
vn 0.8910 0.4540 -0.0000
vn 0.7071 0.7071 0.0000
vn 0.4540 0.8910 0.0000
vn 0.1564 0.9877 0.0000
vn -0.1564 -0.9877 0.0000
vn -0.4540 -0.8910 0.0000
vn -0.7071 -0.7071 0.0000
vn -0.8910 -0.4540 0.0000
vn -0.9877 -0.1564 0.0000
vn -1.0000 -0.0000 -0.0000
vn 0.1564 -0.9877 0.0000
vn 0.4540 -0.8910 -0.0000
vn 0.7071 -0.7071 0.0000
vn 0.8910 -0.4540 0.0000
vn 0.9877 -0.1564 0.0000
vn -0.9877 0.1564 -0.0000
vn -0.8910 0.4540 -0.0000
vn -0.7071 0.7071 -0.0000
vn -0.4540 0.8910 -0.0000
vn -0.1564 0.9877 -0.0000
s off
f 19//1 50//1 51//1
f 6//1 38//1 39//1
f 36//2 93//2 98//2
f 1//3 42//3 47//3
f 60//2 15//2 54//2
f 86//4 2//4 80//4
f 8//5 11//5 10//5
f 11//5 12//5 10//5
f 12//5 13//5 10//5
f 13//5 14//5 10//5
f 14//5 9//5 10//5
f 3//6 11//6 8//6
f 7//7 12//7 11//7
f 6//8 13//8 12//8
f 5//9 14//9 13//9
f 4//10 9//10 14//10
f 21//5 24//5 23//5
f 24//5 25//5 23//5
f 25//5 26//5 23//5
f 26//5 27//5 23//5
f 27//5 22//5 23//5
f 22//11 17//11 15//11
f 27//12 18//12 17//12
f 26//13 19//13 18//13
f 25//14 20//14 19//14
f 24//15 16//15 20//15
f 28//5 31//5 30//5
f 31//5 32//5 30//5
f 32//5 33//5 30//5
f 33//5 34//5 30//5
f 34//5 29//5 30//5
f 36//11 31//11 28//11
f 31//12 39//12 32//12
f 39//13 33//13 32//13
f 33//14 37//14 34//14
f 37//15 29//15 34//15
f 67//5 41//5 22//5
f 42//6 49//6 47//6
f 49//7 45//7 50//7
f 45//8 51//8 50//8
f 51//9 43//9 52//9
f 43//10 48//10 52//10
f 66//16 35//16 73//16
f 53//1 56//1 55//1
f 56//1 57//1 55//1
f 57//1 58//1 55//1
f 58//1 59//1 55//1
f 59//1 54//1 55//1
f 54//17 62//17 60//17
f 59//18 63//18 62//18
f 58//19 64//19 63//19
f 57//20 65//20 64//20
f 56//21 61//21 65//21
f 8//3 53//3 3//3
f 72//1 75//1 74//1
f 75//1 76//1 74//1
f 76//1 77//1 74//1
f 77//1 78//1 74//1
f 78//1 73//1 74//1
f 73//22 68//22 66//22
f 78//23 69//23 68//23
f 77//24 70//24 69//24
f 76//25 71//25 70//25
f 75//26 67//26 71//26
f 48//4 67//4 72//4
f 79//1 82//1 81//1
f 82//1 83//1 81//1
f 83//1 84//1 81//1
f 84//1 85//1 81//1
f 85//1 80//1 81//1
f 80//26 88//26 86//26
f 85//25 89//25 88//25
f 84//24 90//24 89//24
f 83//23 91//23 90//23
f 82//22 87//22 91//22
f 21//16 79//16 16//16
f 98//1 101//1 100//1
f 101//1 102//1 100//1
f 102//1 103//1 100//1
f 103//1 104//1 100//1
f 104//1 99//1 100//1
f 99//21 94//21 92//21
f 104//20 95//20 94//20
f 103//19 96//19 95//19
f 102//18 97//18 96//18
f 101//17 93//17 97//17
f 96//5 97//5 89//5
f 81//1 100//1 99//1
f 81//1 99//1 79//1
f 99//1 47//1 16//1
f 16//1 79//1 99//1
f 19//1 20//1 49//1
f 20//1 16//1 47//1
f 17//1 18//1 52//1
f 18//1 19//1 51//1
f 17//1 52//1 48//1
f 54//1 15//1 48//1
f 15//1 17//1 48//1
f 74//1 55//1 72//1
f 55//1 54//1 72//1
f 20//1 47//1 49//1
f 72//1 54//1 48//1
f 52//1 18//1 51//1
f 19//1 49//1 50//1
f 100//1 81//1 98//1
f 81//1 80//1 98//1
f 80//1 2//1 36//1
f 2//1 4//1 36//1
f 4//1 5//1 40//1
f 5//1 6//1 39//1
f 4//1 40//1 36//1
f 6//1 7//1 37//1
f 7//1 3//1 35//1
f 3//1 53//1 73//1
f 53//1 55//1 73//1
f 55//1 74//1 73//1
f 73//1 35//1 3//1
f 7//1 35//1 37//1
f 36//1 98//1 80//1
f 40//1 5//1 39//1
f 6//1 37//1 38//1
f 36//2 28//2 93//2
f 47//3 99//3 1//3
f 99//3 92//3 1//3
f 60//2 22//2 15//2
f 86//4 9//4 2//4
f 3//6 7//6 11//6
f 7//7 6//7 12//7
f 6//8 5//8 13//8
f 5//9 4//9 14//9
f 4//10 2//10 9//10
f 22//11 27//11 17//11
f 27//12 26//12 18//12
f 26//13 25//13 19//13
f 25//14 24//14 20//14
f 24//15 21//15 16//15
f 36//11 40//11 31//11
f 31//12 40//12 39//12
f 39//13 38//13 33//13
f 33//14 38//14 37//14
f 37//15 35//15 29//15
f 61//5 8//5 29//5
f 8//5 10//5 29//5
f 10//5 30//5 29//5
f 29//5 66//5 61//5
f 65//5 61//5 66//5
f 63//5 64//5 69//5
f 64//5 65//5 68//5
f 68//5 65//5 66//5
f 60//5 62//5 67//5
f 62//5 63//5 71//5
f 67//5 62//5 71//5
f 42//5 1//5 23//5
f 46//5 42//5 23//5
f 22//5 60//5 67//5
f 46//5 23//5 45//5
f 23//5 22//5 45//5
f 64//5 68//5 69//5
f 44//5 45//5 22//5
f 43//5 44//5 22//5
f 63//5 69//5 70//5
f 63//5 70//5 71//5
f 41//5 43//5 22//5
f 42//6 46//6 49//6
f 49//7 46//7 45//7
f 45//8 44//8 51//8
f 51//9 44//9 43//9
f 43//10 41//10 48//10
f 66//16 29//16 35//16
f 54//17 59//17 62//17
f 59//18 58//18 63//18
f 58//19 57//19 64//19
f 57//20 56//20 65//20
f 56//21 53//21 61//21
f 8//3 61//3 53//3
f 73//22 78//22 68//22
f 78//23 77//23 69//23
f 77//24 76//24 70//24
f 76//25 75//25 71//25
f 75//26 72//26 67//26
f 48//4 41//4 67//4
f 80//26 85//26 88//26
f 85//25 84//25 89//25
f 84//24 83//24 90//24
f 83//23 82//23 91//23
f 82//22 79//22 87//22
f 21//16 87//16 79//16
f 99//21 104//21 94//21
f 104//20 103//20 95//20
f 103//19 102//19 96//19
f 102//18 101//18 97//18
f 101//17 98//17 93//17
f 87//5 21//5 1//5
f 21//5 23//5 1//5
f 1//5 92//5 87//5
f 90//5 91//5 94//5
f 91//5 87//5 92//5
f 90//5 94//5 95//5
f 88//5 89//5 97//5
f 89//5 90//5 95//5
f 9//5 86//5 28//5
f 86//5 88//5 93//5
f 28//5 86//5 93//5
f 30//5 10//5 28//5
f 10//5 9//5 28//5
f 89//5 95//5 96//5
f 92//5 94//5 91//5
f 97//5 93//5 88//5
