# Blender v2.79 (sub 0) OBJ File: 'avtar_frame.blend'
# www.blender.org
o Cube_Cube.001
v -0.963000 -0.963000 -0.080000
v -0.963000 -1.000000 -0.043000
v -1.000000 -0.963000 -0.043000
v -0.963000 -0.989163 -0.069163
v -0.984362 -0.984362 -0.064362
v -0.989163 -0.989163 -0.043000
v -0.989163 -0.963000 -0.069163
v -0.963000 -1.000000 0.043000
v -0.954051 -0.963000 0.080000
v -0.963000 -0.657059 0.080000
v -1.000000 -0.963000 0.043000
v -0.958525 -0.989163 0.069163
v -0.984811 -0.949575 0.071220
v -0.960376 -0.873455 0.080000
v -0.989163 -0.810030 0.069163
v -0.989163 -0.989163 0.043000
v -0.963000 0.910674 -0.080000
v -1.000000 0.963000 -0.043000
v -0.963000 1.000000 -0.043000
v -0.910674 0.963000 -0.080000
v -0.989163 0.936837 -0.069163
v -0.979665 0.979665 -0.071220
v -0.989163 0.989163 -0.043000
v -0.936837 0.989163 -0.069163
v -0.947674 0.947674 -0.080000
v -0.963000 0.963000 0.080000
v -0.963000 1.000000 0.043000
v -1.000000 0.963000 0.043000
v -0.963000 0.989163 0.069163
v -0.984362 0.984362 0.064362
v -0.989163 0.989163 0.043000
v -0.989163 0.963000 0.069163
v 0.963000 -0.910674 -0.080000
v 1.000000 -0.963000 -0.043000
v 0.963000 -1.000000 -0.043000
v 0.910674 -0.963000 -0.080000
v 0.989163 -0.936837 -0.069163
v 0.979665 -0.979665 -0.071220
v 0.989163 -0.989163 -0.043000
v 0.936837 -0.989163 -0.069163
v 0.947674 -0.947674 -0.080000
v 0.963000 -0.963000 0.080000
v 0.963000 -1.000000 0.043000
v 1.000000 -0.963000 0.043000
v 0.963000 -0.989163 0.069163
v 0.984362 -0.984362 0.064362
v 0.989163 -0.989163 0.043000
v 0.989163 -0.963000 0.069163
v 0.963000 0.963000 -0.080000
v 0.963000 1.000000 -0.043000
v 1.000000 0.963000 -0.043000
v 0.963000 0.989163 -0.069163
v 0.984362 0.984362 -0.064362
v 0.989163 0.989163 -0.043000
v 0.989163 0.963000 -0.069163
v 0.910674 0.963000 0.080000
v 0.963000 0.910674 0.080000
v 1.000000 0.963000 0.043000
v 0.963000 1.000000 0.043000
v 0.947674 0.947674 0.080000
v 0.979665 0.979665 0.071220
v 0.989163 0.936837 0.069163
v 0.989163 0.989163 0.043000
v 0.936837 0.989163 0.069163
v -0.793000 -0.830000 0.043000
v -0.830000 -0.793000 0.043000
v -0.867000 -0.867000 0.080000
v -0.819163 -0.819163 0.043000
v -0.830000 -0.830000 0.066360
v -0.840837 -0.830000 0.069163
v -0.830000 -0.840837 0.069163
v -0.793000 -0.830000 -0.043000
v -0.867000 -0.867000 -0.080000
v -0.830000 -0.793000 -0.043000
v -0.830000 -0.840837 -0.069163
v -0.830000 -0.830000 -0.066360
v -0.840837 -0.830000 -0.069163
v -0.819163 -0.819163 -0.043000
v 0.793000 -0.830000 0.043000
v 0.867000 -0.867000 0.080000
v 0.830000 -0.793000 0.043000
v 0.830000 -0.840837 0.069163
v 0.830000 -0.830000 0.066360
v 0.840837 -0.830000 0.069163
v 0.819163 -0.819163 0.043000
v 0.814674 -0.867000 -0.080000
v 0.793000 -0.830000 -0.043000
v 0.830000 -0.793000 -0.043000
v 0.867000 -0.814674 -0.080000
v 0.803837 -0.840837 -0.069163
v 0.829140 -0.829140 -0.071220
v 0.819163 -0.819163 -0.043000
v 0.840837 -0.803837 -0.069163
v 0.851674 -0.851674 -0.080000
v -0.867000 -0.564274 0.080000
v -0.830000 -0.221333 0.043000
v -0.867000 -0.217341 0.080000
v -0.840837 -0.392804 0.069163
v -0.845083 -0.298393 0.072810
v -0.840837 -0.219337 0.069163
v -0.867000 -0.390808 0.080000
v -0.830000 0.793000 0.043000
v -0.793000 0.830000 0.043000
v -0.867000 0.867000 0.080000
v -0.819163 0.819163 0.043000
v -0.830000 0.830000 0.066360
v -0.830000 0.840837 0.069163
v -0.840837 0.830000 0.069163
v -0.867000 0.814674 -0.080000
v -0.814674 0.867000 -0.080000
v -0.793000 0.830000 -0.043000
v -0.830000 0.793000 -0.043000
v -0.851674 0.851674 -0.080000
v -0.829140 0.829140 -0.071220
v -0.803837 0.840837 -0.069163
v -0.819163 0.819163 -0.043000
v -0.840837 0.803837 -0.069163
v 0.867000 0.814674 0.080000
v 0.814674 0.867000 0.080000
v 0.793000 0.830000 0.043000
v 0.830000 0.793000 0.043000
v 0.851674 0.851674 0.080000
v 0.829140 0.829140 0.071220
v 0.803837 0.840837 0.069163
v 0.819163 0.819163 0.043000
v 0.840837 0.803837 0.069163
v 0.830000 0.793000 -0.043000
v 0.793000 0.830000 -0.043000
v 0.867000 0.867000 -0.080000
v 0.819163 0.819163 -0.043000
v 0.830000 0.830000 -0.066360
v 0.830000 0.840837 -0.069163
v 0.840837 0.830000 -0.069163
vn 0.0000 -1.0000 0.0000
vn 0.0000 0.0000 -1.0000
vn 0.0000 1.0000 0.0000
vn 0.0000 0.0000 1.0000
vn 1.0000 0.0000 0.0000
vn -1.0000 -0.0000 -0.0000
vn -0.3672 -0.2817 -0.8865
vn -0.2818 -0.8865 -0.3672
vn -0.8865 -0.3672 -0.2818
vn -0.3492 -0.8431 0.4089
vn -0.3799 -0.2978 0.8758
vn -0.3607 -0.0044 0.9327
vn -0.8763 -0.0202 0.4813
vn -0.2792 0.1156 -0.9532
vn -0.8435 0.1625 -0.5119
vn -0.3503 0.8457 -0.4026
vn -0.1156 0.2792 -0.9532
vn -0.3672 0.2817 0.8865
vn -0.2818 0.8865 0.3672
vn -0.8865 0.3672 0.2818
vn 0.2792 -0.1156 -0.9532
vn 0.8435 -0.1625 -0.5119
vn 0.3503 -0.8457 -0.4026
vn 0.1156 -0.2792 -0.9532
vn 0.3672 -0.2817 0.8865
vn 0.2818 -0.8865 0.3672
vn 0.8865 -0.3672 0.2818
vn 0.3672 0.2817 -0.8865
vn 0.2818 0.8865 -0.3672
vn 0.8865 0.3672 -0.2818
vn 0.1156 0.2792 0.9532
vn 0.2792 0.1156 0.9532
vn 0.8435 0.1625 0.5119
vn 0.3503 0.8457 0.4025
vn 0.5215 0.2137 0.8261
vn 0.7901 0.3273 0.5184
vn 0.1667 0.1667 0.9718
vn 0.3273 0.7901 -0.5184
vn 0.1667 0.1667 -0.9718
vn 0.2137 0.5215 -0.8260
vn -0.3273 0.7901 0.5184
vn -0.1667 0.1667 0.9718
vn -0.2137 0.5215 0.8260
vn -0.1094 0.2640 -0.9583
vn -0.3366 0.8125 -0.4760
vn -0.8125 0.3366 -0.4760
vn -0.2972 0.2131 -0.9307
vn 0.3827 0.0000 0.9239
vn 0.8702 0.0201 0.4923
vn 0.3840 0.0220 0.9231
vn 0.2137 -0.5215 0.8260
vn 0.3273 -0.7901 0.5184
vn 0.1667 -0.1667 0.9718
vn 0.2972 -0.2131 -0.9307
vn 0.1094 -0.2640 -0.9583
vn 0.3366 -0.8125 -0.4760
vn 0.8125 -0.3366 -0.4760
vn -0.2972 -0.2131 0.9307
vn -0.1094 -0.2640 0.9583
vn -0.3366 -0.8125 0.4760
vn -0.8125 -0.3366 0.4760
vn -0.2137 -0.5215 -0.8260
vn -0.3273 -0.7901 -0.5184
vn -0.1667 -0.1667 -0.9718
vn -0.3827 0.0000 -0.9239
vn -0.9239 0.0000 -0.3827
vn -0.3827 -0.9239 0.0000
vn -0.9239 -0.3827 0.0000
vn -0.3827 -0.0000 0.9239
vn -0.9239 0.0000 0.3827
vn -0.3827 0.9239 -0.0000
vn -0.9239 0.3827 -0.0000
vn 0.0000 0.3827 -0.9239
vn -0.0000 0.9239 -0.3827
vn -0.0000 0.3827 0.9239
vn 0.0000 0.9239 0.3827
vn 0.9239 0.3827 0.0000
vn 0.3827 0.9239 0.0000
vn 0.3827 -0.0000 -0.9239
vn 0.9239 0.0000 -0.3827
vn 0.9239 0.0000 0.3827
vn 0.3827 -0.9239 -0.0000
vn 0.9239 -0.3827 -0.0000
vn 0.0000 -0.3827 -0.9239
vn 0.0000 -0.9239 -0.3827
vn 0.0000 -0.3827 0.9239
vn -0.0000 -0.9239 0.3827
vn -0.2817 -0.3672 -0.8865
vn -0.3672 -0.8865 -0.2817
vn -0.8865 -0.2817 -0.3672
vn -0.5876 -0.4259 0.6880
vn -0.2824 -0.0200 0.9591
vn -0.3465 0.0030 0.9381
vn -0.7642 -0.3166 0.5619
vn -0.2552 0.0101 -0.9668
vn -0.8457 0.3503 -0.4026
vn -0.1625 0.8435 -0.5119
vn -0.0101 0.2552 -0.9668
vn -0.2817 0.3672 0.8865
vn -0.3672 0.8865 0.2817
vn -0.8865 0.2817 0.3672
vn 0.2552 -0.0101 -0.9668
vn 0.8457 -0.3503 -0.4026
vn 0.1625 -0.8435 -0.5119
vn 0.0101 -0.2552 -0.9668
vn 0.2817 -0.3672 0.8865
vn 0.3672 -0.8865 0.2817
vn 0.8865 -0.2817 0.3672
vn 0.2817 0.3672 -0.8865
vn 0.3672 0.8865 -0.2817
vn 0.8865 0.2817 -0.3672
vn 0.0101 0.2552 0.9668
vn 0.2552 0.0101 0.9668
vn 0.8457 0.3503 0.4026
vn 0.1625 0.8435 0.5119
vn 0.3273 0.7901 0.5184
vn 0.2137 0.5215 0.8260
vn 0.2429 0.2429 0.9391
vn 0.5215 0.2137 -0.8261
vn 0.2429 0.2429 -0.9391
vn 0.7901 0.3273 -0.5184
vn -0.5215 0.2137 0.8261
vn -0.2429 0.2429 0.9391
vn -0.7901 0.3273 0.5184
vn -0.2131 0.2972 -0.9307
vn -0.4076 0.8061 -0.4291
vn -0.8061 0.4076 -0.4291
vn -0.2640 0.1094 -0.9583
vn 0.3814 -0.0186 0.9242
vn 0.9226 -0.0318 0.3846
vn 0.3117 0.0000 0.9502
vn 0.7901 -0.3273 0.5184
vn 0.5215 -0.2137 0.8261
vn 0.2429 -0.2429 0.9391
vn 0.2640 -0.1094 -0.9583
vn 0.2131 -0.2972 -0.9307
vn 0.4076 -0.8061 -0.4291
vn 0.8061 -0.4076 -0.4291
vn -0.2640 -0.1094 0.9583
vn -0.2131 -0.2972 0.9307
vn -0.4076 -0.8061 0.4291
vn -0.8061 -0.4076 0.4291
vn -0.7901 -0.3273 -0.5184
vn -0.5215 -0.2137 -0.8261
vn -0.2429 -0.2429 -0.9391
s off
f 43//1 2//1 35//1
f 49//2 89//2 129//2
f 65//3 87//3 72//3
f 104//4 56//4 26//4
f 58//5 34//5 51//5
f 27//3 50//3 19//3
f 120//1 111//1 128//1
f 80//4 67//4 9//4
f 81//6 127//6 88//6
f 96//5 66//5 74//5
f 11//6 18//6 3//6
f 1//7 5//7 7//7
f 2//8 5//8 4//8
f 3//9 5//9 6//9
f 12//10 16//10 8//10
f 9//11 13//11 12//11
f 15//12 14//12 10//12
f 11//13 13//13 15//13
f 21//14 25//14 17//14
f 18//15 22//15 21//15
f 19//16 22//16 23//16
f 25//17 24//17 20//17
f 26//18 30//18 32//18
f 27//19 30//19 29//19
f 28//20 30//20 31//20
f 37//21 41//21 33//21
f 34//22 38//22 37//22
f 35//23 38//23 39//23
f 41//24 40//24 36//24
f 42//25 46//25 48//25
f 43//26 46//26 45//26
f 44//27 46//27 47//27
f 49//28 53//28 55//28
f 50//29 53//29 52//29
f 51//30 53//30 54//30
f 60//31 64//31 56//31
f 62//32 60//32 57//32
f 58//33 61//33 62//33
f 59//34 61//34 63//34
f 65//35 69//35 71//35
f 66//36 69//36 68//36
f 71//37 70//37 67//37
f 72//38 76//38 78//38
f 77//39 75//39 73//39
f 74//40 76//40 77//40
f 79//41 83//41 85//41
f 84//42 82//42 80//42
f 81//43 83//43 84//43
f 86//44 91//44 94//44
f 92//45 90//45 87//45
f 93//46 92//46 88//46
f 89//47 91//47 93//47
f 98//48 101//48 95//48
f 96//49 99//49 98//49
f 97//50 99//50 100//50
f 102//51 106//51 108//51
f 103//52 106//52 105//52
f 108//53 107//53 104//53
f 109//54 114//54 117//54
f 110//55 114//55 113//55
f 116//56 115//56 111//56
f 117//57 116//57 112//57
f 118//58 123//58 126//58
f 119//59 123//59 122//59
f 125//60 124//60 120//60
f 126//61 125//61 121//61
f 127//62 131//62 133//62
f 128//63 131//63 130//63
f 133//64 132//64 129//64
f 17//65 7//65 21//65
f 21//66 3//66 18//66
f 2//67 16//67 6//67
f 16//68 3//68 6//68
f 10//69 32//69 15//69
f 15//70 28//70 11//70
f 27//71 23//71 31//71
f 23//72 28//72 31//72
f 20//73 52//73 49//73
f 24//74 50//74 52//74
f 56//75 29//75 26//75
f 64//76 27//76 29//76
f 51//77 63//77 58//77
f 63//78 50//78 59//78
f 33//79 55//79 37//79
f 37//80 51//80 34//80
f 57//48 48//48 62//48
f 62//81 44//81 58//81
f 43//82 39//82 47//82
f 39//83 44//83 47//83
f 36//84 4//84 1//84
f 40//85 2//85 4//85
f 9//86 45//86 42//86
f 12//87 43//87 45//87
f 67//75 82//75 71//75
f 82//76 65//76 71//76
f 72//74 90//74 75//74
f 75//73 86//73 73//73
f 66//81 98//81 70//81
f 70//48 95//48 67//48
f 109//79 77//79 73//79
f 117//80 74//80 77//80
f 97//48 108//48 104//48
f 100//81 102//81 108//81
f 118//69 84//69 80//69
f 126//70 81//70 84//70
f 89//65 133//65 129//65
f 93//66 127//66 133//66
f 103//87 124//87 107//87
f 107//86 119//86 104//86
f 110//84 132//84 115//84
f 115//85 128//85 111//85
f 112//83 105//83 102//83
f 105//82 111//82 103//82
f 66//77 78//77 74//77
f 68//78 72//78 78//78
f 128//67 125//67 120//67
f 130//68 121//68 125//68
f 88//72 85//72 81//72
f 85//71 87//71 79//71
f 10//4 101//4 97//4
f 14//4 95//4 101//4
f 57//4 122//4 118//4
f 122//4 56//4 119//4
f 33//2 94//2 89//2
f 94//2 36//2 86//2
f 17//2 113//2 109//2
f 113//2 20//2 110//2
f 73//2 36//2 1//2
f 43//1 8//1 2//1
f 110//2 20//2 49//2
f 49//2 33//2 89//2
f 129//2 110//2 49//2
f 65//3 79//3 87//3
f 26//4 10//4 97//4
f 104//4 119//4 56//4
f 26//4 97//4 104//4
f 58//5 44//5 34//5
f 27//3 59//3 50//3
f 120//1 103//1 111//1
f 42//4 57//4 118//4
f 42//4 118//4 80//4
f 67//4 95//4 9//4
f 42//4 80//4 9//4
f 81//6 121//6 127//6
f 74//5 112//5 96//5
f 112//5 102//5 96//5
f 11//6 28//6 18//6
f 1//88 4//88 5//88
f 2//89 6//89 5//89
f 3//90 7//90 5//90
f 12//91 13//91 16//91
f 9//92 14//92 13//92
f 15//93 13//93 14//93
f 11//94 16//94 13//94
f 21//95 22//95 25//95
f 18//96 23//96 22//96
f 19//97 24//97 22//97
f 25//98 22//98 24//98
f 26//99 29//99 30//99
f 27//100 31//100 30//100
f 28//101 32//101 30//101
f 37//102 38//102 41//102
f 34//103 39//103 38//103
f 35//104 40//104 38//104
f 41//105 38//105 40//105
f 42//106 45//106 46//106
f 43//107 47//107 46//107
f 44//108 48//108 46//108
f 49//109 52//109 53//109
f 50//110 54//110 53//110
f 51//111 55//111 53//111
f 60//112 61//112 64//112
f 62//113 61//113 60//113
f 58//114 63//114 61//114
f 59//115 64//115 61//115
f 65//116 68//116 69//116
f 66//117 70//117 69//117
f 71//118 69//118 70//118
f 72//119 75//119 76//119
f 77//120 76//120 75//120
f 74//121 78//121 76//121
f 79//122 82//122 83//122
f 84//123 83//123 82//123
f 81//124 85//124 83//124
f 86//125 90//125 91//125
f 92//126 91//126 90//126
f 93//127 91//127 92//127
f 89//128 94//128 91//128
f 98//129 99//129 101//129
f 96//130 100//130 99//130
f 97//131 101//131 99//131
f 102//132 105//132 106//132
f 103//133 107//133 106//133
f 108//134 106//134 107//134
f 109//135 113//135 114//135
f 110//136 115//136 114//136
f 116//137 114//137 115//137
f 117//138 114//138 116//138
f 118//139 122//139 123//139
f 119//140 124//140 123//140
f 125//141 123//141 124//141
f 126//142 123//142 125//142
f 127//143 130//143 131//143
f 128//144 132//144 131//144
f 133//145 131//145 132//145
f 17//65 1//65 7//65
f 21//66 7//66 3//66
f 2//67 8//67 16//67
f 16//68 11//68 3//68
f 10//69 26//69 32//69
f 15//70 32//70 28//70
f 27//71 19//71 23//71
f 23//72 18//72 28//72
f 20//73 24//73 52//73
f 24//74 19//74 50//74
f 56//75 64//75 29//75
f 64//76 59//76 27//76
f 51//77 54//77 63//77
f 63//78 54//78 50//78
f 33//79 49//79 55//79
f 37//80 55//80 51//80
f 57//48 42//48 48//48
f 62//81 48//81 44//81
f 43//82 35//82 39//82
f 39//83 34//83 44//83
f 36//84 40//84 4//84
f 40//85 35//85 2//85
f 9//86 12//86 45//86
f 12//87 8//87 43//87
f 67//75 80//75 82//75
f 82//76 79//76 65//76
f 72//74 87//74 90//74
f 75//73 90//73 86//73
f 66//81 96//81 98//81
f 70//48 98//48 95//48
f 109//79 117//79 77//79
f 117//80 112//80 74//80
f 97//48 100//48 108//48
f 100//81 96//81 102//81
f 118//69 126//69 84//69
f 126//70 121//70 81//70
f 89//65 93//65 133//65
f 93//66 88//66 127//66
f 103//87 120//87 124//87
f 107//86 124//86 119//86
f 110//84 129//84 132//84
f 115//85 132//85 128//85
f 112//83 116//83 105//83
f 105//82 116//82 111//82
f 66//77 68//77 78//77
f 68//78 65//78 72//78
f 128//67 130//67 125//67
f 130//68 127//68 121//68
f 88//72 92//72 85//72
f 85//71 92//71 87//71
f 10//4 14//4 101//4
f 14//4 9//4 95//4
f 57//4 60//4 122//4
f 122//4 60//4 56//4
f 33//2 41//2 94//2
f 94//2 41//2 36//2
f 17//2 25//2 113//2
f 113//2 25//2 20//2
f 17//2 109//2 73//2
f 73//2 86//2 36//2
f 1//2 17//2 73//2
