# Blender v2.79 (sub 0) OBJ File: ''
# www.blender.org
mtllib mine_2.mtl
o Mine_2
v -0.324168 0.212920 -0.782611
v -0.324168 0.753710 -0.782611
v 0.324168 0.212920 -0.782611
v 0.324168 0.753710 -0.782611
v 0.782611 0.212920 -0.324168
v 0.782611 0.753710 -0.324168
v 0.782611 0.212920 0.324168
v 0.782611 0.753710 0.324168
v 0.324168 0.212920 0.782611
v 0.324168 0.753710 0.782611
v -0.324168 0.212920 0.782611
v -0.324168 0.753710 0.782611
v -0.782611 0.212920 0.324168
v -0.782611 0.753710 0.324168
v -0.782611 0.212920 -0.324168
v -0.782611 0.753710 -0.324168
v 0.166553 1.021046 -0.402094
v -0.166553 1.021046 -0.402094
v 0.402094 1.021046 -0.166553
v 0.402094 1.021046 0.166553
v 0.166553 1.021046 0.402094
v -0.166553 1.021046 0.402094
v -0.402094 1.021046 0.166553
v -0.402094 1.021046 -0.166553
v -0.000000 1.051101 0.000000
v -0.324168 -0.754008 -0.782611
v 0.324168 -0.754008 -0.782611
v 0.782611 -0.754008 -0.324168
v 0.782611 -0.754008 0.324168
v 0.324168 -0.754008 0.782611
v -0.324168 -0.754008 0.782610
v -0.782611 -0.754008 0.324168
v -0.782611 -0.754008 -0.324168
v 0.166553 -1.021344 -0.402094
v -0.166553 -1.021344 -0.402094
v 0.402094 -1.021344 -0.166553
v 0.402094 -1.021344 0.166553
v 0.166553 -1.021344 0.402094
v -0.166553 -1.021344 0.402094
v -0.402094 -1.021344 0.166553
v -0.402094 -1.021344 -0.166553
v -0.000000 -1.051399 -0.000000
v -0.413045 -0.212918 -0.997178
v -0.413045 0.212920 -0.997178
v 0.413045 -0.212918 -0.997178
v 0.413045 0.212920 -0.997178
v 0.997178 -0.212918 -0.413045
v 0.997178 0.212920 -0.413045
v 0.997178 -0.212918 0.413045
v 0.997178 0.212920 0.413045
v 0.413044 -0.212918 0.997178
v 0.413044 0.212920 0.997178
v -0.413045 -0.212918 0.997178
v -0.413045 0.212920 0.997178
v -0.997178 -0.212918 0.413045
v -0.997178 0.212920 0.413045
v -0.997178 -0.212918 -0.413045
v -0.997178 0.212920 -0.413045
v -0.324168 -0.212920 -0.782610
v 0.324168 -0.212920 -0.782610
v 0.782610 -0.212920 -0.324168
v 0.782610 -0.212920 0.324168
v 0.324168 -0.212920 0.782610
v -0.324168 -0.212920 0.782610
v -0.782610 -0.212920 0.324168
v -0.782610 -0.212920 -0.324168
v -0.925814 0.204826 0.111960
v -0.925814 0.514235 0.111960
v -0.925814 0.204826 -0.111960
v -0.925814 0.514235 -0.111960
v -0.780005 0.204826 0.158089
v -0.780005 0.634530 0.158089
v -0.780005 0.204826 -0.158089
v -0.780005 0.634530 -0.158089
v 0.925814 0.204826 0.111960
v 0.925814 0.514235 0.111960
v 0.925814 0.204826 -0.111960
v 0.925814 0.514235 -0.111960
v 0.780004 0.204826 0.158089
v 0.780004 0.634530 0.158089
v 0.780004 0.204826 -0.158089
v 0.780004 0.634530 -0.158089
v -0.925814 -0.205124 0.111960
v -0.925814 -0.514533 0.111960
v -0.925814 -0.205124 -0.111960
v -0.925814 -0.514533 -0.111960
v -0.780005 -0.205124 0.158089
v -0.780005 -0.634828 0.158089
v -0.780005 -0.205124 -0.158089
v -0.780005 -0.634828 -0.158089
v 0.925814 -0.205124 0.111960
v 0.925814 -0.514533 0.111960
v 0.925814 -0.205124 -0.111960
v 0.925814 -0.514533 -0.111960
v 0.780004 -0.205124 0.158089
v 0.780004 -0.634828 0.158089
v 0.780004 -0.205124 -0.158089
v 0.780004 -0.634828 -0.158089
v 0.655547 0.197170 0.451232
v 0.655547 0.504262 0.451232
v 0.324168 0.504262 0.782611
v -0.324168 0.504262 0.782611
v -0.655547 0.197170 0.451232
v -0.655547 0.504262 0.451232
v 0.655547 0.409820 0.561285
v 0.655547 0.197170 0.561285
v 0.324168 0.197170 0.892664
v 0.324168 0.409820 0.892664
v -0.324168 0.197170 0.892664
v -0.324168 0.409820 0.892664
v -0.655547 0.197170 0.561285
v -0.655547 0.409820 0.561285
v 0.655547 0.197170 -0.451232
v 0.655547 0.504263 -0.451232
v 0.324168 0.504263 -0.782611
v -0.324168 0.504263 -0.782611
v -0.655547 0.197170 -0.451232
v -0.655547 0.504263 -0.451232
v 0.655547 0.409821 -0.561285
v 0.655547 0.197170 -0.561285
v 0.324168 0.197170 -0.892664
v 0.324168 0.409821 -0.892664
v -0.324168 0.197170 -0.892664
v -0.324168 0.409821 -0.892664
v -0.655547 0.197170 -0.561285
v -0.655547 0.409821 -0.561285
v 0.655547 -0.197468 0.451232
v 0.655547 -0.504560 0.451232
v 0.324168 -0.504560 0.782611
v -0.324168 -0.504560 0.782611
v -0.655547 -0.197468 0.451232
v -0.655547 -0.504560 0.451232
v 0.655547 -0.410118 0.561285
v 0.655547 -0.197468 0.561285
v 0.324168 -0.197468 0.892664
v 0.324168 -0.410118 0.892664
v -0.324168 -0.197468 0.892664
v -0.324168 -0.410118 0.892664
v -0.655547 -0.197468 0.561285
v -0.655547 -0.410118 0.561285
v 0.655547 -0.197468 -0.451232
v 0.655547 -0.504560 -0.451232
v 0.324168 -0.504560 -0.782611
v -0.324168 -0.504560 -0.782611
v -0.655547 -0.197468 -0.451232
v -0.655547 -0.504560 -0.451232
v 0.655547 -0.410118 -0.561285
v 0.655547 -0.197468 -0.561285
v 0.324168 -0.197468 -0.892664
v 0.324168 -0.410118 -0.892664
v -0.324168 -0.197468 -0.892664
v -0.324168 -0.410118 -0.892664
v -0.655547 -0.197468 -0.561285
v -0.655547 -0.410118 -0.561285
vt 0.806229 0.451332
vt 0.986453 0.241380
vt 0.986453 0.451332
vt 0.806229 0.241380
vt 0.986453 0.031429
vt 0.806229 0.871235
vt 0.986453 0.661283
vt 0.986454 0.871235
vt 0.806229 0.661283
vt 0.986453 0.451332
vt 0.806229 0.451332
vt 0.986453 0.241380
vt 0.806229 0.241380
vt 0.986453 0.031429
vt 0.406398 0.578336
vt 0.577861 0.445379
vt 0.632934 0.578336
vt 0.806229 0.661283
vt 0.986453 0.661283
vt 0.806229 0.871235
vt 0.986454 0.871235
vt 0.793119 0.191615
vt 0.577861 0.164386
vt 0.632934 0.031429
vt 0.246212 0.191615
vt 0.379169 0.363078
vt 0.246212 0.418151
vt 0.793119 0.418151
vt 0.660162 0.363078
vt 0.406398 0.031429
vt 0.461470 0.164386
vt 0.379169 0.246687
vt 0.461470 0.445379
vt 0.660162 0.246687
vt 0.519666 0.304883
vt 0.577861 0.445379
vt 0.406398 0.578336
vt 0.632934 0.578336
vt 0.577861 0.164386
vt 0.793119 0.191615
vt 0.632934 0.031429
vt 0.379169 0.363078
vt 0.246212 0.191615
vt 0.246212 0.418151
vt 0.660162 0.363078
vt 0.793119 0.418151
vt 0.406398 0.031429
vt 0.379169 0.246687
vt 0.461470 0.445379
vt 0.660162 0.246687
vt 0.519666 0.304883
vt 0.461470 0.164386
vt 0.011942 0.566456
vt 0.149744 0.298943
vt 0.149744 0.566456
vt 0.011942 0.298943
vt 0.149744 0.031429
vt 0.544169 0.882915
vt 0.276655 0.745113
vt 0.544169 0.745113
vt 0.276655 0.882915
vt 0.009142 0.745113
vt 0.011942 0.566456
vt 0.149744 0.298943
vt 0.149744 0.566456
vt 0.011942 0.298943
vt 0.149744 0.031429
vt 0.276655 0.731744
vt 0.515178 0.661754
vt 0.544169 0.731744
vt 0.276655 0.882915
vt 0.009142 0.745113
vt 0.276655 0.745113
vt 0.544169 0.882915
vt 0.544169 0.745113
vt 0.163114 0.031429
vt 0.233103 0.269952
vt 0.163114 0.298943
vt 0.163114 0.298943
vt 0.233103 0.537465
vt 0.163113 0.566456
vt 0.544169 0.731744
vt 0.305646 0.661754
vt 0.515178 0.661754
vt 0.038132 0.661754
vt 0.247665 0.661754
vt 0.233103 0.537465
vt 0.163113 0.566456
vt 0.163114 0.031429
vt 0.233103 0.269952
vt 0.009142 0.731744
vt 0.247665 0.661754
vt 0.276655 0.731744
vt 0.630713 0.721458
vt 0.558200 0.821654
vt 0.558200 0.721458
vt 0.289199 0.584364
vt 0.189002 0.633888
vt 0.189002 0.584364
vt 0.289199 0.584364
vt 0.189002 0.633888
vt 0.328154 0.633888
vt 0.645651 0.660245
vt 0.543262 0.660245
vt 0.558200 0.821654
vt 0.630713 0.721458
vt 0.558200 0.721458
vt 0.289199 0.584364
vt 0.189002 0.633888
vt 0.328154 0.633888
vt 0.189002 0.633888
vt 0.289199 0.584364
vt 0.328154 0.633888
vt 0.543262 0.660245
vt 0.645651 0.660245
vt 0.558200 0.821654
vt 0.630713 0.721458
vt 0.558200 0.721458
vt 0.289199 0.584364
vt 0.189002 0.633888
vt 0.328154 0.633888
vt 0.189002 0.633888
vt 0.289199 0.584364
vt 0.328154 0.633888
vt 0.645651 0.660245
vt 0.543262 0.660245
vt 0.630713 0.721458
vt 0.558200 0.821654
vt 0.558200 0.721458
vt 0.289199 0.584364
vt 0.189002 0.633888
vt 0.189002 0.584364
vt 0.289199 0.584364
vt 0.189002 0.633888
vt 0.328154 0.633888
vt 0.645651 0.660245
vt 0.543262 0.660245
vt 0.522986 0.962539
vt 0.371226 0.893677
vt 0.522986 0.893677
vt 0.371226 0.962539
vt 0.161274 0.893677
vt 0.009514 0.962539
vt 0.009514 0.893677
vt 0.413671 0.599360
vt 0.285611 0.564886
vt 0.413671 0.646322
vt 0.623623 0.599360
vt 0.751683 0.564886
vt 0.751683 0.517924
vt 0.173184 0.627790
vt 0.104321 0.592151
vt 0.173184 0.592151
vt 0.173184 0.627790
vt 0.104321 0.592151
vt 0.073738 0.627790
vt 0.623623 0.646322
vt 0.371226 0.893677
vt 0.522986 0.962539
vt 0.522986 0.893677
vt 0.161274 0.893677
vt 0.371226 0.962539
vt 0.009514 0.962539
vt 0.161274 0.962539
vt 0.413671 0.599360
vt 0.285611 0.564886
vt 0.285611 0.517924
vt 0.751683 0.564886
vt 0.623623 0.599360
vt 0.751683 0.517924
vt 0.173184 0.627790
vt 0.104321 0.592151
vt 0.073738 0.627790
vt 0.104321 0.592151
vt 0.173184 0.627790
vt 0.073738 0.627790
vt 0.623623 0.646322
vt 0.371226 0.893677
vt 0.522986 0.962539
vt 0.522986 0.893677
vt 0.161274 0.893677
vt 0.371226 0.962539
vt 0.009514 0.962539
vt 0.161274 0.962539
vt 0.413671 0.599360
vt 0.285611 0.564886
vt 0.285611 0.517924
vt 0.751683 0.564886
vt 0.623623 0.599360
vt 0.751683 0.517924
vt 0.173184 0.627790
vt 0.104321 0.592151
vt 0.073738 0.627790
vt 0.104321 0.592151
vt 0.173184 0.627790
vt 0.073738 0.627790
vt 0.623623 0.646322
vt 0.522986 0.962539
vt 0.371226 0.893677
vt 0.522986 0.893677
vt 0.371226 0.962539
vt 0.161274 0.893677
vt 0.009514 0.962539
vt 0.009514 0.893677
vt 0.413671 0.599360
vt 0.285611 0.564886
vt 0.413671 0.646322
vt 0.623623 0.599360
vt 0.751683 0.564886
vt 0.751683 0.517924
vt 0.173184 0.627790
vt 0.104321 0.592151
vt 0.173184 0.592151
vt 0.173184 0.627790
vt 0.104321 0.592151
vt 0.073738 0.627790
vt 0.623623 0.646322
vt 0.986453 0.241380
vt 0.806229 0.451332
vt 0.986453 0.451332
vt 0.986453 0.031429
vt 0.806229 0.241380
vt 0.986453 0.661283
vt 0.806229 0.871235
vt 0.986454 0.871235
vt 0.986453 0.451332
vt 0.806229 0.661283
vt 0.986453 0.241380
vt 0.806229 0.451332
vt 0.986453 0.031429
vt 0.806229 0.241380
vt 0.986453 0.661283
vt 0.806229 0.661283
vt 0.806229 0.871235
vt 0.986454 0.871235
vt 0.163114 0.298943
vt 0.233103 0.060420
vt 0.163114 0.031429
vt 0.544169 0.731744
vt 0.305646 0.661754
vt 0.276655 0.731744
vt 0.163113 0.566456
vt 0.233103 0.327933
vt 0.163114 0.298943
vt 0.276655 0.731744
vt 0.515178 0.661754
vt 0.305646 0.661754
vt 0.038132 0.661754
vt 0.009142 0.731744
vt 0.163113 0.566456
vt 0.233103 0.327933
vt 0.233103 0.060420
vt 0.163114 0.031429
vt 0.038132 0.661754
vt 0.009142 0.731744
vt 0.806229 0.031429
vt 0.806229 0.031429
vt 0.011942 0.031429
vt 0.009142 0.882915
vt 0.011942 0.031429
vt 0.305646 0.661754
vt 0.009142 0.882915
vt 0.233103 0.060420
vt 0.233103 0.327933
vt 0.009142 0.731744
vt 0.233103 0.327933
vt 0.233103 0.060420
vt 0.038132 0.661754
vt 0.630713 0.821654
vt 0.328154 0.633888
vt 0.189002 0.584364
vt 0.630713 0.821654
vt 0.189002 0.584364
vt 0.189002 0.584364
vt 0.630713 0.821654
vt 0.189002 0.584364
vt 0.189002 0.584364
vt 0.630713 0.821654
vt 0.328154 0.633888
vt 0.189002 0.584364
vt 0.161274 0.962539
vt 0.285611 0.517924
vt 0.073738 0.627790
vt 0.173184 0.592151
vt 0.009514 0.893677
vt 0.413671 0.646322
vt 0.173184 0.592151
vt 0.173184 0.592151
vt 0.009514 0.893677
vt 0.413671 0.646322
vt 0.173184 0.592151
vt 0.173184 0.592151
vt 0.161274 0.962539
vt 0.285611 0.517924
vt 0.073738 0.627790
vt 0.173184 0.592151
vt 0.806229 0.031429
vt 0.806229 0.031429
vt 0.233103 0.269952
vt 0.515178 0.661754
vt 0.233103 0.537465
vt 0.544169 0.731744
vt 0.247665 0.661754
vt 0.233103 0.537465
vt 0.233103 0.269952
vt 0.247665 0.661754
vn -0.3827 0.0000 -0.9239
vn 0.3827 0.0000 -0.9239
vn 0.9239 0.0000 -0.3827
vn 0.9239 0.0000 0.3827
vn 0.3827 -0.0000 0.9239
vn -0.3827 -0.0000 0.9239
vn -0.9239 -0.0000 0.3827
vn 0.5030 0.8388 0.2084
vn 0.1419 0.9288 0.3425
vn 0.2084 0.8388 0.5030
vn -0.9239 -0.0000 -0.3827
vn -0.5030 0.8388 0.2084
vn -0.3425 0.9288 -0.1419
vn -0.5030 0.8388 -0.2084
vn 0.2084 0.8388 -0.5030
vn 0.3425 0.9288 -0.1419
vn 0.5030 0.8388 -0.2084
vn -0.2084 0.8388 0.5030
vn -0.1419 0.9288 0.3425
vn -0.2084 0.8388 -0.5030
vn -0.1419 0.9288 -0.3425
vn 0.1419 0.9288 -0.3425
vn 0.3425 0.9288 0.1419
vn -0.3425 0.9288 0.1419
vn -0.0000 1.0000 0.0000
vn 0.1419 -0.9288 0.3425
vn 0.5030 -0.8388 0.2084
vn 0.2084 -0.8388 0.5030
vn -0.3425 -0.9288 -0.1419
vn -0.5030 -0.8388 0.2084
vn -0.5030 -0.8388 -0.2084
vn 0.3425 -0.9288 -0.1419
vn 0.2084 -0.8388 -0.5030
vn 0.5030 -0.8388 -0.2084
vn -0.1419 -0.9288 0.3425
vn -0.2084 -0.8388 0.5030
vn -0.2084 -0.8388 -0.5030
vn 0.1419 -0.9288 -0.3425
vn 0.3425 -0.9288 0.1419
vn -0.3425 -0.9288 0.1419
vn -0.0000 -1.0000 -0.0000
vn -0.1419 -0.9288 -0.3425
vn -0.8898 0.4563 0.0000
vn -1.0000 0.0000 0.0000
vn -0.3016 0.0000 -0.9534
vn -0.3016 -0.0000 0.9534
vn -0.6364 0.7714 0.0000
vn 1.0000 -0.0000 0.0000
vn 0.8898 0.4563 0.0000
vn 0.3016 0.0000 -0.9534
vn 0.3016 -0.0000 0.9534
vn 0.6364 0.7714 0.0000
vn -0.8898 -0.4563 0.0000
vn -0.6364 -0.7714 0.0000
vn 0.8898 -0.4563 0.0000
vn 0.6364 -0.7714 0.0000
vn 0.7071 0.0000 0.7071
vn -0.7071 0.0000 0.7071
vn -0.3278 0.7170 0.6153
vn -0.5457 0.6359 0.5457
vn -0.2216 0.7400 0.6350
vn 0.3278 0.7170 0.6153
vn 0.5457 0.6359 0.5457
vn 0.2216 0.7400 0.6350
vn 0.7071 0.0000 -0.7071
vn -0.7071 0.0000 -0.7071
vn -0.3278 0.7170 -0.6153
vn -0.5457 0.6359 -0.5457
vn 0.5457 0.6359 -0.5457
vn 0.3278 0.7170 -0.6153
vn 0.2216 0.7400 -0.6350
vn -0.3278 -0.7170 0.6153
vn -0.5457 -0.6359 0.5457
vn 0.5457 -0.6359 0.5457
vn 0.3278 -0.7170 0.6153
vn 0.2216 -0.7400 0.6350
vn -0.3278 -0.7170 -0.6153
vn -0.5457 -0.6359 -0.5457
vn -0.2216 -0.7400 -0.6350
vn 0.3278 -0.7170 -0.6153
vn 0.5457 -0.6359 -0.5457
vn 0.2216 -0.7400 -0.6350
vn -0.2216 0.7400 -0.6350
vn -0.2216 -0.7400 0.6350
usemtl Material.001
s 1
f 2/1/1 3/2/2 1/3/1
f 4/4/2 5/5/3 3/2/2
f 6/6/3 7/7/4 5/8/3
f 8/9/4 9/10/5 7/7/4
f 10/11/5 11/12/6 9/10/5
f 12/13/6 13/14/7 11/12/6
f 8/15/8 21/16/9 10/17/10
f 16/18/11 1/3/1 15/19/11
f 14/20/7 15/19/11 13/21/7
f 14/22/12 24/23/13 16/24/14
f 4/25/15 19/26/16 6/27/17
f 12/28/18 21/16/9 22/29/19
f 2/30/20 24/23/13 18/31/21
f 2/30/20 17/32/22 4/25/15
f 6/27/17 20/33/23 8/15/8
f 14/22/12 22/29/19 23/34/24
f 17/32/22 18/31/21 25/35/25
f 18/31/21 24/23/13 25/35/25
f 23/34/24 22/29/19 25/35/25
f 21/16/9 20/33/23 25/35/25
f 19/26/16 17/32/22 25/35/25
f 24/23/13 23/34/24 25/35/25
f 22/29/19 21/16/9 25/35/25
f 20/33/23 19/26/16 25/35/25
f 38/36/26 29/37/27 30/38/28
f 41/39/29 32/40/30 33/41/31
f 36/42/32 27/43/33 28/44/34
f 39/45/35 30/38/28 31/46/36
f 26/47/37 41/39/29 33/41/31
f 34/48/38 26/47/37 27/43/33
f 37/49/39 28/44/34 29/37/27
f 40/50/40 31/46/36 32/40/30
f 34/48/38 42/51/41 35/52/42
f 35/52/42 42/51/41 41/39/29
f 40/50/40 42/51/41 39/45/35
f 38/36/26 42/51/41 37/49/39
f 36/42/32 42/51/41 34/48/38
f 41/39/29 42/51/41 40/50/40
f 39/45/35 42/51/41 38/36/26
f 37/49/39 42/51/41 36/42/32
f 44/53/1 45/54/2 43/55/1
f 46/56/2 47/57/3 45/54/2
f 48/58/3 49/59/4 47/60/3
f 50/61/4 51/62/5 49/59/4
f 52/63/5 53/64/6 51/65/5
f 54/66/6 55/67/7 53/64/6
f 57/68/41 65/69/41 55/70/41
f 58/71/11 43/72/1 57/73/11
f 56/74/7 57/73/11 55/75/7
f 47/76/41 60/77/41 45/78/41
f 53/79/41 63/80/41 51/81/41
f 47/82/41 62/83/41 61/84/41
f 57/68/41 59/85/41 66/86/41
f 45/78/41 59/87/41 43/88/41
f 55/89/41 64/90/41 53/79/41
f 51/91/41 62/92/41 49/93/41
f 70/94/43 67/95/44 68/96/43
f 70/97/45 73/98/45 69/99/45
f 68/100/46 71/101/46 72/102/46
f 74/103/47 68/96/43 72/104/47
f 75/105/48 78/106/49 76/107/49
f 78/108/50 81/109/50 82/110/50
f 79/111/51 76/112/51 80/113/51
f 80/114/52 78/106/49 82/115/52
f 83/116/44 86/117/53 84/118/53
f 86/119/45 89/120/45 90/121/45
f 87/122/46 84/123/46 88/124/46
f 84/118/53 90/125/54 88/126/54
f 94/127/55 91/128/48 92/129/55
f 94/130/50 97/131/50 93/132/50
f 92/133/51 95/134/51 96/135/51
f 98/136/56 92/129/55 96/137/56
f 105/138/57 107/139/5 106/140/57
f 108/141/5 109/142/6 107/139/5
f 109/142/6 112/143/58 111/144/58
f 102/145/59 112/146/60 110/147/61
f 101/148/62 105/149/63 100/150/63
f 99/151/48 105/152/48 106/153/48
f 103/154/44 112/155/44 104/156/44
f 102/145/59 108/157/64 101/148/62
f 121/158/2 119/159/65 120/160/65
f 123/161/1 122/162/2 121/158/2
f 123/161/1 126/163/66 124/164/1
f 116/165/67 126/166/68 118/167/68
f 119/168/69 115/169/70 114/170/69
f 113/171/48 119/172/48 114/173/48
f 126/174/44 117/175/44 118/176/44
f 122/177/71 116/165/67 115/169/70
f 135/178/5 133/179/57 134/180/57
f 137/181/6 136/182/5 135/178/5
f 137/181/6 140/183/58 138/184/6
f 130/185/72 140/186/73 132/187/73
f 133/188/74 129/189/75 128/190/74
f 127/191/48 133/192/48 128/193/48
f 140/194/44 131/195/44 132/196/44
f 136/197/76 130/185/72 129/189/75
f 147/198/65 149/199/2 148/200/65
f 150/201/2 151/202/1 149/199/2
f 151/202/1 154/203/66 153/204/66
f 144/205/77 154/206/78 152/207/79
f 143/208/80 147/209/81 142/210/81
f 141/211/48 147/212/48 148/213/48
f 145/214/44 154/215/44 146/216/44
f 144/205/77 150/217/82 143/208/80
f 60/218/2 26/219/1 59/220/1
f 61/221/3 27/222/2 60/218/2
f 62/223/4 28/224/3 61/225/3
f 63/226/5 29/227/4 62/223/4
f 64/228/6 30/229/5 63/226/5
f 65/230/7 31/231/6 64/228/6
f 66/232/11 26/219/1 33/233/11
f 66/232/11 32/234/7 65/235/7
f 46/236/25 5/237/25 48/238/25
f 56/239/25 15/240/25 58/241/25
f 52/242/25 11/243/25 54/244/25
f 50/245/25 5/246/25 7/247/25
f 58/241/25 1/248/25 44/249/25
f 44/250/25 3/251/25 46/236/25
f 54/244/25 13/252/25 56/253/25
f 50/245/25 9/254/25 52/255/25
f 2/1/1 4/4/2 3/2/2
f 4/4/2 6/256/3 5/5/3
f 6/6/3 8/9/4 7/7/4
f 8/9/4 10/11/5 9/10/5
f 10/11/5 12/13/6 11/12/6
f 12/13/6 14/257/7 13/14/7
f 8/15/8 20/33/23 21/16/9
f 16/18/11 2/1/1 1/3/1
f 14/20/7 16/18/11 15/19/11
f 14/22/12 23/34/24 24/23/13
f 4/25/15 17/32/22 19/26/16
f 12/28/18 10/17/10 21/16/9
f 2/30/20 16/24/14 24/23/13
f 2/30/20 18/31/21 17/32/22
f 6/27/17 19/26/16 20/33/23
f 14/22/12 12/28/18 22/29/19
f 38/36/26 37/49/39 29/37/27
f 41/39/29 40/50/40 32/40/30
f 36/42/32 34/48/38 27/43/33
f 39/45/35 38/36/26 30/38/28
f 26/47/37 35/52/42 41/39/29
f 34/48/38 35/52/42 26/47/37
f 37/49/39 36/42/32 28/44/34
f 40/50/40 39/45/35 31/46/36
f 44/53/1 46/56/2 45/54/2
f 46/56/2 48/258/3 47/57/3
f 48/58/3 50/61/4 49/59/4
f 50/61/4 52/259/5 51/62/5
f 52/63/5 54/66/6 53/64/6
f 54/66/6 56/260/7 55/67/7
f 57/68/41 66/261/41 65/69/41
f 58/71/11 44/262/1 43/72/1
f 56/74/7 58/71/11 57/73/11
f 47/76/41 61/263/41 60/77/41
f 53/79/41 64/264/41 63/80/41
f 47/82/41 49/93/41 62/83/41
f 57/68/41 43/265/41 59/85/41
f 45/78/41 60/266/41 59/87/41
f 55/89/41 65/267/41 64/90/41
f 51/91/41 63/268/41 62/92/41
f 70/94/43 69/269/44 67/95/44
f 70/97/45 74/270/45 73/98/45
f 68/100/46 67/271/46 71/101/46
f 74/103/47 70/94/43 68/96/43
f 75/105/48 77/272/48 78/106/49
f 78/108/50 77/273/50 81/109/50
f 79/111/51 75/274/51 76/112/51
f 80/114/52 76/107/49 78/106/49
f 83/116/44 85/275/44 86/117/53
f 86/119/45 85/276/45 89/120/45
f 87/122/46 83/277/46 84/123/46
f 84/118/53 86/117/53 90/125/54
f 94/127/55 93/278/48 91/128/48
f 94/130/50 98/279/50 97/131/50
f 92/133/51 91/280/51 95/134/51
f 98/136/56 94/127/55 92/129/55
f 105/138/57 108/141/5 107/139/5
f 108/141/5 110/281/6 109/142/6
f 109/142/6 110/281/6 112/143/58
f 102/145/59 104/282/60 112/146/60
f 101/148/62 108/157/64 105/149/63
f 99/151/48 100/283/48 105/152/48
f 103/154/44 111/284/44 112/155/44
f 102/145/59 110/147/61 108/157/64
f 121/158/2 122/162/2 119/159/65
f 123/161/1 124/164/1 122/162/2
f 123/161/1 125/285/66 126/163/66
f 116/165/67 124/286/83 126/166/68
f 119/168/69 122/177/71 115/169/70
f 113/171/48 120/287/48 119/172/48
f 126/174/44 125/288/44 117/175/44
f 122/177/71 124/286/83 116/165/67
f 135/178/5 136/182/5 133/179/57
f 137/181/6 138/184/6 136/182/5
f 137/181/6 139/289/58 140/183/58
f 130/185/72 138/290/84 140/186/73
f 133/188/74 136/197/76 129/189/75
f 127/191/48 134/291/48 133/192/48
f 140/194/44 139/292/44 131/195/44
f 136/197/76 138/290/84 130/185/72
f 147/198/65 150/201/2 149/199/2
f 150/201/2 152/293/1 151/202/1
f 151/202/1 152/293/1 154/203/66
f 144/205/77 146/294/78 154/206/78
f 143/208/80 150/217/82 147/209/81
f 141/211/48 142/295/48 147/212/48
f 145/214/44 153/296/44 154/215/44
f 144/205/77 152/207/79 150/217/82
f 60/218/2 27/222/2 26/219/1
f 61/221/3 28/297/3 27/222/2
f 62/223/4 29/227/4 28/224/3
f 63/226/5 30/229/5 29/227/4
f 64/228/6 31/231/6 30/229/5
f 65/230/7 32/298/7 31/231/6
f 66/232/11 59/220/1 26/219/1
f 66/232/11 33/233/11 32/234/7
f 46/236/25 3/299/25 5/237/25
f 56/239/25 13/300/25 15/240/25
f 52/242/25 9/301/25 11/243/25
f 50/245/25 48/302/25 5/246/25
f 58/241/25 15/303/25 1/248/25
f 44/250/25 1/304/25 3/251/25
f 54/244/25 11/305/25 13/252/25
f 50/245/25 7/306/25 9/254/25
